<svg height="27" viewBox="0 0 181 27" width="181" xmlns="http://www.w3.org/2000/svg"><g fill="#fefefe" fill-rule="nonzero"><path d="m106.732737 9.80654684c-.13063.34812936-.261261.73977486-.348348 1.08790416-.827326 3.0461316-1.654653 11.4012354-2.438435 14.447367-.130631.4786778-.348348.6962586-.87087.6527425-.609609-.0870324-1.219218-.0870324-1.828827-.0870324-.522522 0-.783783-.2175808-.914414-.6962586-.261261-1.4795496-.4789781-8.1810392-.8273261-9.6605888-.3048045-1.4360335-.696696-2.8720669-1.0885874-4.3081004-.0435435-.2175808-.2177175-.4351617-.4789785-.6092263v1.305485c.0435435 2.3933891.0435435 10.0087181.1306305 12.4021072.0435435 1.3490011.087087 1.3490011-1.2627614 1.305485-.609609 0-1.2192179.0435161-1.8288269.0435161-.5225219 0-.8273264-.261097-.8273264-.8268071-.0435435-1.3925173-.0435435-8.0069745-.087087-9.3994918-.0435435-1.9582275-.087087-3.9164549-.0435435-5.87468239.0435435-2.00174362.1306305-4.00348725.2177175-6.00523087 0-.21758083.348348-.56571015.5660654-.56571015 1.2627614-.04351617 2.5690663 0 3.8318278.04351616.6531524.04351617 1.1756744.34812933 1.3498483 1.04438798.4354347 1.82767896.8273267 3.65535792 1.2192177 5.43952071.304805 1.39251726.653153 2.74151846 1.001501 4.13403576.043543.1305485.13063.261097.261261.522194.13063-.261097.261261-.3916455.304804-.5657102.914414-3.2637124 1.785283-6.48390867 2.656153-9.7476211.130631-.43516166.348348-.65274249.827327-.65274249 1.306305 0 2.61261 0 3.962458-.08703233.653153-.04351616.783783.21758083.783783.78329099-.087087 2.74151844-.174174 5.52655304-.174174 8.26807153 0 1.9147112.130631 9.0948786.174174 11.0095899 0 .5657101-.043543 1.1749364-.087087 1.7406466-.043543.4351617-.261261.6962587-.696696.7397748-.827326.0435162-1.611109.0870324-2.438436.1305485-.435435 0-.566065-.261097-.566065-.6527425-.043544-.9573556-.087087-1.9147113-.130631-2.8720669-.043543-1.8711951-.087087-9.0513625-.087087-10.9225576 0-.3046132.043544-.6092263.043544-.9138395 0-.2175808-.043544-.4351616-.043544-.65274246-.087087 0-.174174 0-.261261 0z"/><path d="m9.75796228 17.86303c.17108391.5226986.34216782 1.0018389.47048072 1.4809792 1.75361 6.7079648 12.2752702 3.484657 13.0451478 3.3539824.1283129 0 .2566259-.0435582.3849388-.0871164.8554195-.1742329.9837324-.0871164 1.1120454.827606.0855419.4791403.1710839.9147225.2138548 1.3938628.085542.9147225-.1710839 1.2631882-1.0265034 1.4809792-1.75361.3920239-14.07165119 2.8312838-16.0391161-4.7042869-.21385488-.7840478-.68433562-1.5245374-1.02650343-2.2650271-.38493879-.9147224-.98373246-1.3067463-1.92469394-1.3503045-.34216781 0-.51325171.1306746-.47048074.4791403.04277098 1.0889553-.04277097 5.6190094.04277098 6.7079647.08554195 1.2631882-.04277098 1.4809792-1.28312929 1.5245374-.64156464 0-1.28312929 0-1.92469393 0-.42770977 0-.64156465-.217791-.68433562-.6969314-.17108391-2.3085852-.38493879-8.014711-.47048074-10.3232963-.08554196-1.9165613-.04277098-7.0564304-.04277098-9.01654996 0-.91472246-.08554195-1.82944492-.12831293-2.70060916-.04277097-.56625677.12831293-.87116425.76987758-.87116425 2.82288443 0 5.68853984-.21779106 8.51142428 0 1.75361006.13067463 3.12228126 1.35030458 3.54999106 3.1797495.4277097 1.87300313.2993968 7.09998857-.3849388 8.92943357-.5132517 1.3503046-1.4542132 2.1343524-2.69457152 2.6570509zm-5.6029979-11.54292626c0 .6969314.08554196 4.53005406.12831293 5.13986906.04277098.9582807.04277098 1.9601196.12831293 2.9184002 0 .1742329.25662586.4791404.38493879.4791404.98373245-.0435582 2.01023588-.0871165 2.99396834-.2177911.64156464-.0871164 1.15481636-.5226985 1.24035831-1.1760717.08554196-.7404896.04277098-4.74784518 0-5.48833479-.04277097-.69693139-.42770976-1.17607173-1.0692744-1.437421-1.32590027-.52269855-2.56625858-.39202392-3.8066169-.21779107z"/><path d="m177.059132 19.5608167c-.525449.1742274-.963324.4791253-1.401198.4791253-1.18226.0435568-2.408308.1742274-3.502994-.0871137-1.488772-.3048979-2.495883-1.2631485-2.758608-2.8311949-.306512-1.9165011-.875748-9.75673303-.700598-11.67323417.043787-.43556845.043787-.91469373.043787-1.35026217 0-.52268213.262725-.82758004.788174-.82758004.656811-.04355684 1.35741-.04355684 2.014221-.08711369.569237-.04355684.788174.21778422.788174.7840232-.043788 1.61160323.613024 9.19049407.656811 10.80209737 0 .5662389.087575 1.1324779.131362 1.6987169.087575.6533526.437875 1.0453642 1.138474 1.1324779.262724.0435569.525449.0871137.831961.0871137 1.401197-.0871137 2.145583-.5226821 2.101796-2.0907285-.043787-1.8293875-.744386-9.75673308-.656811-11.58612053.043787-.82758004.218937-.91469373 1.050898-.95825057.569236 0 1.094685 0 1.663922-.04355684.700599-.04355685.831961.04355684.875748.78402319 0 .95825057.788174 8.10157305.788174 9.05982355.043788 2.5698538.087575 5.1397076.087575 7.7095614 0 .7840232-.043787 1.5680464-.17515 2.3520696-.218937 1.2631485-.963323 2.1342854-2.233158 2.6134106-1.444985.5226822-6.217815.566239-10.071108.3484548-1.970434-.1306705-4.24738-2.787638-4.816617-4.3121276-.262724-.6969095-.394087-1.4809327-.613024-2.221399-.262724-.82758.043788-1.132478.919536-1.3067053.481662-.0871137.963323-.0871137 1.444985-.1306706.656811-.0435568 1.182261.0871137 1.401198.8275801.394087 5.1832644 7.443862 5.3574918 9.939745 4.3121275.613024-.261341.525449-1.393819.481662-1.6116032-.043788-.4355684-.087575-.8711369-.131362-1.3502622.043787-.1742273-.043788-.3920116-.087575-.5226821z"/><path d="m145.945086 8.39295429v3.78318851c0 .1289723.042685.2579446.08537.386917.085371.2149539.384167.3009354.597592.2149539.128056-.0859816.256111-.1719631.341482-.3009355.811017-1.2037418 1.707406-7.56637695 2.475738-8.81310951.256111-.42990779.597592-.64486168 1.109814-.64486168.597592 0 1.195184-.04299078 1.792777 0 .298796.04299078.768332.12897234.853703.34392623.128055.21495389 0 .68785245-.170741.94579712-.768333 1.20374179-1.750091 7.52338614-2.561109 8.68413724-.768333 1.1177602-.768333 1.1177602-.08537 2.2355204.469536.773834.896388 1.547668 1.323239 2.321502.384167.6878525 7.299161.2579447 8.238234.0429908.128056-.0429908.256111 0 .384167.0429908.469536.2149539.768332 1.160751.640277 1.8486035-.128056.6448616-.469537.9887879-1.152499 1.0317786-1.49398.0859816-9.134622.5588802-10.031011-.6448616-.640277-.9028064-1.195184-1.8486035-1.707406-2.7944006-.426851-.8168248-.981758-1.160751-1.920831-1.1177602-.853703-.0429908-.426852 2.4074835-.512222 2.9233729-.128056.5588801.213426 1.7196311-.597592 1.9775758-.682963.2149539-1.493981.1289723-2.219628.0859815-.170741 0-.384166-.5588801-.384166-.8598155-.128056-4.6859949-.213426-9.3289989-.341482-14.01499373 0-.34392623-.042685-1.16075102-.08537-1.54766802-.08537-.55888012.128056-.94579712.725648-.9887879.640277-.08598156 1.280554-.12897233 1.920831-.12897233.597593.04299077 1.109814.51588934 1.109814 1.11776023.042685 1.28972335 0 2.62243747 0 3.91216082.128056-.04299078.170741-.04299078.170741-.04299078z"/><path d="m31.6119004 9.30857143c.2705251-.1752381.4959627-.30666667.6763128-.43809524 1.1722756-.7447619 2.3896387-1.18285714 3.7873518-.96380952 1.983851.30666666 3.4717392 2.10285713 3.8324394 4.33714283.2705251 1.8838095-.090175 9.112381-.6312253 10.9085715-.5861378 1.84-1.9387634 2.847619-3.7873518 2.847619-1.3526257 0-2.5699888-.3942857-3.5619143-1.4019048-.4508752-.4380952-.7664878-.3504762-1.037013.1314286-.1352625.2190476-.2705251.4380952-.3607001.6571429-.2705252.4819047-.7214004.5695238-1.2173631.4380952-.4959628-.1314286-.6312253-.5257143-.6312253-.9638095-.1352626-2.7161905-.2254377-10.6457143-.3156127-13.3619048-.090175-2.32190474-.2254376-5.03809522-.3607002-7.4038095-.0450875-.48190477.2254376-.74476191.6312253-.83238096.8115754-.17523809 1.6682383-.26285714 2.4798137-.26285714.1803501 0 .4057877.56952381.4508753.87619048.0450875 1.40190476.0450875 3.24190476.090175 4.64380952-.090175.21904762-.0450875.43809524-.0450875.78857143zm.2254376 4.86285717s-.0901751 6.3085714 0 6.8342857c.090175.6571428.3156126 1.2704762.9919255 1.5771428 1.5329757.7885715 3.1561265-.1314285 3.1561265-1.84 0-.92.0450875-7.1847619 0-8.1485714-.0450875-.8323809-.4508752-1.4019047-1.2624506-1.6209524-1.4878882-.4380952-3.020864.7447619-2.9306889 2.2342857 0 .3504762 0 .6571429.0450875.9638096z"/><path d="m119.16248 2.03729282c1.676558-.13129384 3.217178.04376462 4.576548 1.18164458.679686.56893998 1.178122 1.22540918 1.223434 2.10070146.090625 1.96940762 0 14.61738104-.090625 16.58678864-.135937 2.2319953-1.495307 3.6762276-3.85155 3.9388152-1.767182.2188231-3.624988.3063523-5.346858-.4376461-1.404683-.6127046-2.265618-1.6192907-2.401555-3.1510522-.181249-1.4879969-.226562-13.61079489-.271874-15.09879176 0-.91905689.226562-1.88187839.543748-2.71340606.815623-1.88187839 2.537492-2.36328914 4.440611-2.40705376zm1.993744 4.68281368c-.045312-.56893998-.181249-1.22540918-.860935-1.31293841-.860934-.13129384-1.767182-.17505846-2.628116-.08752923-.589061.04376462-.906247.48141075-.906247 1.09411535 0 1.09411534-.271875 12.86679649-.226562 13.96091179.090624 2.2319953.498436 2.5383476 2.764054 2.3632892.996871-.0875293 1.54062-.56894 1.631244-1.5317615.090625-.6564692.271874-13.8733826.226562-14.4860872z"/><path d="m66.3713654 9.05553909c1.7478686-.17024194 3.4083438 0 4.6318519 1.23425401.4369671.4681654.8739343 1.1065726.917631 1.7024194.1310901 1.8726614.0873934 6.9799195-.0436967 8.8525808-.1747869 2.3833872-1.3545982 3.7453227-3.6268274 4.0432461-1.6604752.2128024-6.4671139.1702419-8.1275891-.5532863-1.3109015-.5958468-2.1411391-1.489617-2.3596227-2.9366735-.2184835-1.4470564-.611754-5.9159073-.7428441-7.3629638-.1747869-2.1705847.7865409-3.8730041 2.6654996-4.55397187.6991475-.2553629 1.4856884-.29792339 2.2285325-.38304436.3932705 0 4.151188-.04256048 4.457065-.04256048zm-5.5494829 9.02282271c-.0436967 0 0 1.1065726.0436967 1.6598589.0873935.8086492-.2184835 1.9152218 1.1361147 2.0854638 1.8789587.2128024 3.2772536.1276814 4.4133682.085121 1.2235081-.0425605 1.7915654-.5532863 1.8352621-1.8301009.0436967-.8512097.0436967-4.8093348.0436967-5.6605444 0-.8086493.4369671-2.1280243-.917631-2.1705848-2.010049-.0425604-3.7579176-.1702419-4.8940322-.1276814-.3495737 0-.6554507.085121-.9613277.1702419-.5243606.1276815-.7865409.5107258-.7865409 1.0214517 0 .5532863.0873934 4.1709274.0873934 4.7667742z"/><path d="m50.194681 2.07948042c1.7966171-.21896026 3.5034034-.04379205 4.8059507 1.26996951.4491543.43792052.8533932 1.0948013.8983086 1.70789002.1347463 1.92685029.1347463 13.70691225 0 15.67755465-.1347463 2.4523549-1.3474628 3.8537005-3.683065 4.1602449-1.7067863.2189603-5.255105.1313761-6.9618912-.6130887-1.3474628-.6130888-2.200856-1.5765139-2.3805177-3.0216516-.1796617-1.4889298-.7635622-12.39315073-.8533931-13.88208049-.1796617-2.27718671.8533931-4.02886878 2.8296719-4.72954162.7186469-.26275231 1.4822091-.30654436 2.2457714-.39412846.3593234-.13137616 2.6949256-.17516821 3.0991644-.17516821zm2.0211943 16.29064328c0-.3941284 0-10.51009242 0-10.90422089 0-1.88305823-.5839006-2.40856286-2.4703485-2.2771867-.3593234 0-2.6500102.13137615-2.9644182.21896026-.5839006.17516821-.943224.52550462-.8983086 1.1823854.0449155 1.13859335.1347463 11.78006193.2245772 12.87486323.2245771 2.2333947 2.2008559 2.2333947 4.4017118 2.2771868 1.1228857 0 1.6618708-.5255047 1.7067863-1.664098 0-.6130888 0-1.1823854 0-1.7078901z"/><path d="m130.82274 3.72254605c.353737-.3091882.663257-.61837639.972777-.8392251.707475-.5300369 1.503384-.75088561 2.34351-.83922509 2.697248-.35335794 5.040758 1.45760148 5.129192 3.97527676.044217.70671587.044217 1.41343174 0 2.07597787 0 .61837639-1.857121 12.89756461-1.901338 13.51594101-.442172 2.6060148 1.061212 2.0759779 2.785681 2.1201476 2.785682.0883395 20.560984-.4858672 20.870504-.4858672.530606 0 .751692.3975277.795909.9275646 0 .4416974.132652.8833949.176869 1.3250923.044217.6625461-.265303 1.1042435-.884344 1.1042435-1.016994.0441698-24.275225.3975277-25.248003.0441698-1.636035-.6183764-1.945555-2.0318082-2.078207-3.4894096-.132651-1.5017713 1.72447-14.66435433 1.636035-16.12195581-.044217-1.54594097-.574823-1.98763839-2.122424-1.81095942-2.166641.26501845-2.387727.61837639-2.387727 2.82686348.044217 2.12014765-.044217 15.90110705-.088434 18.06542445 0 .5742066-.30952.8833948-.884344.8833948-.530606 0-1.016995 0-1.547601 0-.663257 0-.92856-.3533579-.92856-.9717343s0-12.8533949 0-13.4717713c0-2.78269372 0-5.6095572-.044217-8.39225093 0-.39752768-.132652-.8392251-.30952-1.23675278-.221086-.57420664-.132652-.79505535.530606-.79505535.663257 0 1.326515-.04416974 1.989772 0 .221086 0 .486389.22084871.619041.39752768.30952.30918819.397954.70671587.574823 1.19258303z"/><path d="m18.5400833 15.1160446c.0872505.6536592.1308758 1.2637411.2617515 1.873823.2617515.8715456 1.0470059 1.394473 2.0067612 1.394473 1.0906311 0 1.963136-.5665046 2.1812622-1.394473.0872505-.4357727.3490019-.6536591.7416291-.6536591.4798777-.0435773 1.0033806-.0435773 1.4832583-.0871546.6107534-.0435773.7852544.2614637.7852544.8279683-.0436252 1.9174003-1.5268835 3.6169142-3.3591438 3.747646-.9597553.0871546-1.8758854.1307318-2.8356408.1743091-2.2685127.0435773-3.9262719-1.3073183-4.3188991-3.7040687-.2617515-1.6559366-.4362524-3.3118732-.4798777-4.9678098-.0872505-2.39675036.6980039-8.71545582 3.228268-9.06407406 1.0906311-.13073183 2.137637-.21788639 3.2282681-.26146367 1.6577592-.04357728 2.7047651.8279683 3.3591437 2.26601851.5671282 1.26374109.9161301 7.53886932 0 8.67187852-.6107534.784391-1.5268835.8715456-2.3993884.9587002-1.3087573.0435772-2.5302641.1307318-3.8826467.2178863zm1.3960078-1.9174002c.523503-.0871546 1.0906311-.0435773 1.5268836-.2614637.8725048 0 .5671281-5.621469.5235029-6.05724179-.0436253-.39219552-.4798777-.82796831-.8288796-1.0458547-.7416292-.47935007-1.614134-.30504095-2.3993884.08715456-1.0906311.47935007-.4362525 5.79577813-.4798777 6.58016913-.0436253.7408137.0872505.8715456.8288796.784391.2617515-.0435773.8288796-.0871545.8288796-.0871545z"/><path d="m158.40694 9.6156839v.9677692c0 .8358007.265844 1.5836224 1.196298 1.9355385.974761.3519161 1.949522.2639371 2.791361-.3519161.177229-.1319685.398765-.3079266.443073-.5278741.132922-.5278741.48738-.6598427 1.019068-.6598427.398766 0 .797532.0439895 1.196298.0439895.886146.0439895.974761.1319686.886146.9677693-.177229 1.4516538-1.329219 2.7273496-3.057205 2.9033077-1.595063.175958-3.278741.1319685-4.829498-.1319686-1.905214-.263937-2.879975-1.5396328-2.96859-3.2112342-.088615-1.67160144-.132922-3.38719236 0-5.05879376.132922-2.067507 1.772293-3.38719232 4.164888-3.47517134 1.107683-.04398951 2.259673 0 3.367356.08797902 1.639371.13196853 2.614132 1.09973777 3.14582 2.41942309.48738 1.23170629.221536 2.33144406-.753225 3.29921329-.708917.65984266-1.683678.70383217-2.614131.70383217-1.373527.08797903-2.614132.08797903-3.987659.08797903zm1.595063-1.67160141c.531688-.04398951 1.063376.04398951 1.506449-.08797902.398766-.13196853.886147-.48388462.974761-.79181119.088615-.35191609-.088614-.92377973-.398766-1.18771679-.708917-.57186364-1.595063-.52787413-2.436902-.26393706-.753225.26393706-1.196298.79181119-1.284912 1.58362238-.088615.70383217 0 .79181119.841839.74782168z"/><path d="m78.1350557 20.4682377c.0885799.8665377.3986097 1.0831721 1.240119 1.0831721h.1328699c.5757695.0866538 4.739026-.2166344 4.9604758.4765958.2657398.7365571.1771599 1.6030949.1771599 2.4263057 0 .1733076-.3100297.4332689-.5314796.4332689-1.5058587.3032882-6.2448848-.0433269-7.6621636-.6065764-.9300892-.389942-1.3729888-1.2564798-1.4615688-2.2096713-.2214498-1.9063831-.3543197-7.4955516-.4871896-9.4019347 0-.2599613-.0885799-5.45918783-.0885799-5.71914916 0-.38994199.0885799-.64990332-.7972193-.64990332-3.8089369.12998067-8.0164834-.21663444-8.503673-.12998066-.7529293.08665378-.9300892-.08665378-.9743791-.82321087-.04429-.43326888-.08858-.90986464-.1328699-1.34313352-.04429-.43326888.1328699-.64990332.6200595-.64990332.3100297 0 9.0351524-.08665378 9.3451822-.12998066.7529294-.08665378.9300892-.30328822.8415093-1.03984531-.04429-.21663444-.0885799-.43326888-.0885799-.64990332-.1771599-1.21315286-.08858-1.34313352 1.2401189-1.47311419.5314796-.04332689 1.1072491-.08665377 1.6387287-.04332689.5314795.04332689.9300892.30328822.7972193.95319154-.0885799.43326888-.04429.90986464-.1328699 1.38646041-.0885799.56324954.1328699.77988398.7086394.73655709s4.7390261-.08665377 5.2705056-.04332689c.5314796.04332689.7529294.34661511.7529294.90986465-.0885799 1.81972929-.2214498 1.94970995-2.1702082 1.99303684-2.391658-.08665378-4.6947361.17330755-4.6947361 1.21315286-.0885799.64990332-.0885799 12.39148992 0 13.30135462z"/></g></svg>